# Blender v2.78 (sub 0) OBJ File: ''
# www.blender.org
mtllib butter.mtl
o Cube_Cube.001
v -10.000000 18.000004 -19.999996
v 10.000000 0.000003 -20.000000
v -10.000000 0.000003 -20.000000
v -10.000000 -0.000003 20.000000
v 10.000000 18.000004 -19.999996
v 10.000000 -0.000003 20.000000
v 10.000000 17.999996 20.000004
v -10.000000 17.999996 20.000004
vt 0.5862 0.5692
vt 0.5642 0.4764
vt 0.5830 0.5033
vt 0.4482 0.5190
vt 0.5670 0.5505
vt 0.4146 0.4966
vt 0.4104 0.5643
vt 0.4458 0.5799
vn 0.0000 0.0000 -1.0000
vn 0.0000 -1.0000 -0.0000
vn 1.0000 0.0000 0.0000
vn 0.0000 -0.0000 1.0000
vn -1.0000 -0.0000 0.0000
vn 0.0000 1.0000 0.0000
usemtl Material.004
s 1
f 1/1/1 2/2/1 3/3/1
f 2/2/2 4/4/2 3/3/2
f 5/5/3 6/6/3 2/2/3
f 7/7/4 4/4/4 6/6/4
f 4/4/5 1/1/5 3/3/5
f 1/1/6 7/7/6 5/5/6
f 1/1/1 5/5/1 2/2/1
f 2/2/2 6/6/2 4/4/2
f 5/5/3 7/7/3 6/6/3
f 7/7/4 8/8/4 4/4/4
f 4/4/5 8/8/5 1/1/5
f 1/1/6 8/8/6 7/7/6
