# Blender v2.78 (sub 0) OBJ File: ''
# www.blender.org
mtllib particle.mtl
o Plane.002
v -0.000001 -1.699425 -0.600000
v 0.000001 1.699425 0.600000
v -0.000001 -1.699425 0.600000
v 0.000001 1.699425 -0.600000
vt 1.0000 0.0000
vt 0.0000 1.0000
vt 0.0000 0.0000
vt 1.0000 1.0000
vn 1.0000 -0.0000 -0.0000
usemtl None.002
s 1
f 1/1/1 2/2/1 3/3/1
f 1/1/1 4/4/1 2/2/1
o Plane.001
v 0.600000 0.000001 -0.600000
v -0.600000 -0.000001 0.600000
v 0.600000 0.000001 0.599999
v -0.600000 -0.000001 -0.599999
vt 1.0000 0.0000
vt 0.0000 1.0000
vt 0.0000 0.0000
vt 1.0000 1.0000
vn -0.0000 1.0000 0.0000
usemtl None.001
s 1
f 5/5/2 6/6/2 7/7/2
f 5/5/2 8/8/2 6/6/2
o Plane
v 0.600000 -1.699425 0.000001
v -0.600000 1.699425 -0.000001
v -0.600000 -1.699425 0.000001
v 0.600000 1.699425 -0.000001
vt 1.0000 0.0000
vt 0.0000 1.0000
vt 0.0000 0.0000
vt 1.0000 1.0000
vn 0.0000 0.0000 1.0000
usemtl None
s 1
f 9/9/3 10/10/3 11/11/3
f 9/9/3 12/12/3 10/10/3
